<svg xmlns="http://www.w3.org/2000/svg" viewBox="0 0 256.44 58.71"><defs><style>.cls-1,.cls-2{fill:#174452;}.cls-2{font-size:16.1px;font-family:MicrosoftJhengHeiBold, Microsoft JhengHei;font-weight:700;letter-spacing:0.55em;}</style></defs><title>mobile_logo</title><g id="圖層_2" data-name="圖層 2"><g id="圖層_1-2" data-name="圖層 1"><path class="cls-1" d="M129.54,18.26c0,.23,0,.45,0,.68q0,5.77,0,11.53a5.64,5.64,0,0,1-.08,1A2.54,2.54,0,0,1,127,33.69l-.51,0H126a5.21,5.21,0,0,1-1.5-.26,4.84,4.84,0,0,1-.77-.34,2.47,2.47,0,0,1-1.23-1.87,8.45,8.45,0,0,1-.08-1.18q0-3.63,0-7.25c0-2.76,0-5.51,0-8.27,0-2.36,0-4.72,0-7.08a5.06,5.06,0,0,1,.2-1.51,2.56,2.56,0,0,1,1.56-1.68A3.42,3.42,0,0,1,125.34,4l.14,0,1.12,0A.35.35,0,0,0,127,4a3.84,3.84,0,0,1,2.58,1.49c.68.86,1.32,1.75,2,2.63l4.07,5.5,4,5.41c.11.15.24.29.36.43l.1,0v-.08c0-.23,0-.45,0-.68q0-5.74,0-11.47a4.67,4.67,0,0,1,.23-1.61A2.33,2.33,0,0,1,142.42,4l.15,0h1.24l.25.05a3.52,3.52,0,0,1,1.35.37A2.73,2.73,0,0,1,147,6.52a6.68,6.68,0,0,1,.09,1.13q0,11.21,0,22.43a5.88,5.88,0,0,1-.11,1.24,2.57,2.57,0,0,1-1.4,1.88,5.09,5.09,0,0,1-3.14.43,3.71,3.71,0,0,1-2.25-1.32c-.37-.43-.7-.89-1-1.34l-3-4.1-3.29-4.4-3.16-4.21C129.63,18.18,129.58,18.17,129.54,18.26Z"/><path class="cls-1" d="M72.8,26.25h1.11c0,.06.09.06.14,0A6,6,0,0,0,75.71,26a2.42,2.42,0,0,0,1-.54,1.45,1.45,0,0,0-.14-2.29A3.45,3.45,0,0,0,75,22.59c-.15,0-.3,0-.45,0l-.26,0-2.08,0H69.76a14.8,14.8,0,0,1-3-.27l-.15,0A10.09,10.09,0,0,1,64,21.36a7.21,7.21,0,0,1-4.13-5,13.17,13.17,0,0,1-.33-4.43,10.61,10.61,0,0,1,.7-3,7.06,7.06,0,0,1,2.63-3.25A9.31,9.31,0,0,1,66.53,4.2l.15,0,.42-.06A.22.22,0,0,0,67.36,4L67.9,4a.36.36,0,0,0,.37-.06l.44,0a.13.13,0,0,0,.23,0l1.35,0c.13,0,.26,0,.39,0h9.37c.15,0,.3,0,.45,0A8.76,8.76,0,0,1,81.9,4,2.73,2.73,0,0,1,84,6a5.91,5.91,0,0,1,0,3.29,2.76,2.76,0,0,1-2.69,2.1c-.71,0-1.43,0-2.15,0l-.85,0H69.41a.35.35,0,0,0-.37.06l-.54.05-.15,0a2.42,2.42,0,0,0-.9.32,2.34,2.34,0,0,0-.49.38,1.37,1.37,0,0,0,.18,2.08,3,3,0,0,0,1.41.55,11.78,11.78,0,0,0,1.41.11c1.66,0,3.32,0,5,0a.18.18,0,0,0,.26,0l.28,0,.16,0a12.12,12.12,0,0,1,4,1,9.1,9.1,0,0,1,.85.45,7.43,7.43,0,0,1,3.38,4.63,13.49,13.49,0,0,1,.38,2.4,12.09,12.09,0,0,1-.15,3.1,7.76,7.76,0,0,1-2.34,4.54,7.87,7.87,0,0,1-2.61,1.56,12,12,0,0,1-3,.71l-.15,0L75,33.62l-.15,0c-.43,0-.86,0-1.3,0H69.39l-.56,0-.12,0-.45,0H63.15c-.15,0-.3,0-.45,0l-.35,0a2.59,2.59,0,0,1-.94-.18,2.57,2.57,0,0,1-1.62-1.62,3.81,3.81,0,0,1-.21-.82,6.19,6.19,0,0,1,.16-2.57,2.87,2.87,0,0,1,2.62-2.07c.37,0,.75,0,1.13,0l.22,0h3.79a1.6,1.6,0,0,0,.32-.07h5Z"/><path class="cls-1" d="M246.94,26.31a2.9,2.9,0,0,1,2.67,2.23,6,6,0,0,1,0,3,2.75,2.75,0,0,1-2.33,2.11l-.15,0-.77.07h-4.2l-3.05,0-1.36,0a.78.78,0,0,0-.59-.06l-.88-.07-.25,0A12,12,0,0,1,229.71,31a11,11,0,0,1-3.26-4.4,15.94,15.94,0,0,1-1.07-4.2c-.07-.6-.14-1.2-.21-1.79a.13.13,0,0,0,0-.23,23.48,23.48,0,0,1,0-3.29.13.13,0,0,0,0-.23,20.64,20.64,0,0,1,1.14-5.41,10.7,10.7,0,0,1,2.35-3.83,11.41,11.41,0,0,1,1.13-1,11.68,11.68,0,0,1,4.68-2.18c.51-.11,1-.18,1.56-.27l.26-.05.65-.06.15,0,.66-.05c.08.09.16.08.23,0l.55,0a.6.6,0,0,0,.48,0h.54a.17.17,0,0,0,.26,0h1.11a.17.17,0,0,0,.26,0h.76a1.12,1.12,0,0,0,.71,0l3.73,0a4.52,4.52,0,0,1,1.39.22,2.59,2.59,0,0,1,1.7,1.54,3.65,3.65,0,0,1,.22.7,5.87,5.87,0,0,1-.18,3.12,2.65,2.65,0,0,1-2.2,1.8,12,12,0,0,1-1.92.08l-6.16,0-.45,0-.32,0a.37.37,0,0,0-.36.06l-.65.06-.25.06a6.7,6.7,0,0,0-1.56.49,5,5,0,0,0-2.26,2,7.18,7.18,0,0,0-.91,2.42,11.38,11.38,0,0,0-.23,2.69,10.45,10.45,0,0,0,.59,3.21A5.46,5.46,0,0,0,237,26l.25.06.43,0a.08.08,0,0,0,.15,0l.29,0,.16,0,2,.05.62,0h.8l3.85,0,.9,0A.55.55,0,0,0,246.94,26.31Z"/><path class="cls-1" d="M92.82,33.4l-.75,0-.26-.05a3.63,3.63,0,0,1-2.72-5.18c.48-1.07,1-2.12,1.48-3.18l5.72-12.2Q97.9,9.38,99.53,6a5.45,5.45,0,0,1,.5-.89A3.42,3.42,0,0,1,102,3.79l.6-.16h.81l.38.12a3.5,3.5,0,0,1,2.45,2c1.61,3.39,3.24,6.77,4.87,10.15.29.59.59,1.18.84,1.79a3.48,3.48,0,0,1-.65,3.89,3.52,3.52,0,0,1-4,1,3.66,3.66,0,0,1-2-1.8c-.43-.86-.84-1.73-1.26-2.6l-.88-1.83a3.74,3.74,0,0,0-.21-.32c-.1.17-.19.28-.25.41l-1.54,3.27-3,6.3-2.3,4.92a6.56,6.56,0,0,1-.46.84A3.53,3.53,0,0,1,93,33.37Z"/><path class="cls-1" d="M186.88,26.16c.19,0,.37,0,.56,0h11.2c.38,0,.75,0,1.13.07l.15,0a2.67,2.67,0,0,1,2.16,2.06,6.27,6.27,0,0,1,0,3.08,2.68,2.68,0,0,1-1.63,2l-.14.06-.3.07-.15,0c-.45,0-.9.05-1.35.05H184.71l-1.29,0-.84-.05-.15,0a6.62,6.62,0,0,1-.64-.21,2.37,2.37,0,0,1-1.36-1.5,6,6,0,0,1-.23-1.16,10.75,10.75,0,0,1,0-1.19q0-10.84,0-21.69a6.37,6.37,0,0,1,.29-2.12,2.62,2.62,0,0,1,2.27-1.86l.17,0,.15,0h.63l.15,0a4.64,4.64,0,0,1,.5.08,2.78,2.78,0,0,1,2.09,2.22,6.42,6.42,0,0,1,.14,1.46q0,6.08,0,12.16,0,2.83,0,5.66c0,.24,0,.5.22.66Z"/><path class="cls-1" d="M215.55,4l.44.11a2.76,2.76,0,0,1,2,2.34,7,7,0,0,1,.1,1.24q0,8,0,16.08c0,2.06,0,4.11,0,6.17a6.42,6.42,0,0,1-.19,1.63,2.73,2.73,0,0,1-1.26,1.67,3.91,3.91,0,0,1-3.21.42,6.17,6.17,0,0,1-.59-.2,2.65,2.65,0,0,1-1.76-2.24A8,8,0,0,1,211,30q0-6.09,0-12.17,0-5.1,0-10.19A5.86,5.86,0,0,1,211.23,6a2.77,2.77,0,0,1,2.66-2.08c.47,0,.94,0,1.41,0Z"/><path class="cls-1" d="M157.52,33.7a3.5,3.5,0,0,1-1.14-.31,2.56,2.56,0,0,1-1.44-1.51,3.6,3.6,0,0,1-.23-1.27q0-3.85,0-7.69,0-2.94,0-5.88,0-4.81,0-9.62A4.67,4.67,0,0,1,155,5.75,2.63,2.63,0,0,1,157.05,4l.15,0a6,6,0,0,1,2.13.09,4.86,4.86,0,0,1,.9.32,2.6,2.6,0,0,1,1.36,1.79,7.43,7.43,0,0,1,.19,2c0,2.41,0,4.83,0,7.24q0,5.6,0,11.2c0,1.11,0,2.22,0,3.34a8,8,0,0,1-.16,1.51,2.93,2.93,0,0,1-2,2.22l-.13.06-.31.06-.14,0a3.45,3.45,0,0,1-1.24,0Z"/><path class="cls-1" d="M168.52,15.72c.28,0,.56,0,.84,0h3.31c.17,0,.34,0,.5,0a.37.37,0,0,0,.35.06,2.78,2.78,0,0,1,2.3,1.59,4.19,4.19,0,0,1,.4,3,3.92,3.92,0,0,1-1.17,2,2.51,2.51,0,0,1-1.53.65.38.38,0,0,0-.35.06c-.19,0-.37,0-.56,0H169c-.22,0-.45,0-.67-.06l-.13,0a3,3,0,0,1-2.6-2.11,4.48,4.48,0,0,1,.19-3.36,2.82,2.82,0,0,1,2.43-1.69A.38.38,0,0,0,168.52,15.72Z"/><path class="cls-1" d="M113,34.18a4.21,4.21,0,0,1-3.85-4,4.26,4.26,0,0,1,1.68-3.65,3.84,3.84,0,0,1,2-.82,4.26,4.26,0,0,1,4.87,4.08,4,4,0,0,1-.82,2.76A4.21,4.21,0,0,1,114,34.14l-.34,0H113Z"/><path class="cls-1" d="M204.68,3.87a4.27,4.27,0,0,1,.11,8.42l-.24.05a3.19,3.19,0,0,1-1.12,0l-.14,0a4.17,4.17,0,0,1-3.52-4,4.41,4.41,0,0,1,.41-2.14,4.09,4.09,0,0,1,3.11-2.28l.23,0,.15,0,.19,0c0,.06.1.05.14,0h.31A.37.37,0,0,0,204.68,3.87Z"/><path class="cls-1" d="M67.83,26.25a1.6,1.6,0,0,1-.32.07H63.71l-.22,0a1,1,0,0,1,.26-.08h3.86A1.34,1.34,0,0,1,67.83,26.25Z"/><path class="cls-1" d="M246.94,26.31a.55.55,0,0,1-.48-.06A.54.54,0,0,1,246.94,26.31Z"/><path class="cls-1" d="M225.16,20.32a.13.13,0,0,1,0,.23C225.07,20.48,225.07,20.4,225.16,20.32Z"/><path class="cls-1" d="M225.17,16.81a.13.13,0,0,1,0,.23A.13.13,0,0,1,225.17,16.81Z"/><path class="cls-1" d="M69,11.46a.35.35,0,0,1,.37-.06A.36.36,0,0,1,69,11.46Z"/><path class="cls-1" d="M238.07,11.45a.37.37,0,0,1,.36-.06l0,.09Z"/><path class="cls-1" d="M238.41,11.48l0-.09.32,0C238.65,11.52,238.53,11.49,238.41,11.48Z"/><path class="cls-1" d="M168.52,15.72a.38.38,0,0,1-.35.06A.36.36,0,0,1,168.52,15.72Z"/><path class="cls-1" d="M173.52,15.78a.37.37,0,0,1-.35-.06A.36.36,0,0,1,173.52,15.78Z"/><path class="cls-1" d="M173.16,23a.38.38,0,0,1,.35-.06A.35.35,0,0,1,173.16,23Z"/><path class="cls-1" d="M237.3,26.07,237,26Z"/><path class="cls-1" d="M74.26,22.52l.26,0Z"/><path class="cls-1" d="M204.54,12.34l.24-.05A.2.2,0,0,1,204.54,12.34Z"/><path class="cls-1" d="M75.19,15a.18.18,0,0,1-.26,0Z"/><path class="cls-1" d="M237.16,11.57l.25-.06Z"/><path class="cls-1" d="M140,19.41v.08l-.1,0Z"/><path class="cls-1" d="M66.65,22.17l.15,0Z"/><path class="cls-1" d="M168.16,22.94l.13,0Z"/><path class="cls-1" d="M75.63,15.08l-.16,0Z"/><path class="cls-1" d="M186.88,26.16l-.13-.06Z"/><path class="cls-1" d="M237.87,26.13a.08.08,0,0,1-.15,0Z"/><path class="cls-1" d="M238.32,26.18l-.16,0Z"/><path class="cls-1" d="M203.28,12.3l.14,0Z"/><path class="cls-1" d="M72.8,26.25h0Z"/><path class="cls-1" d="M199.92,26.31l-.15,0Z"/><path class="cls-1" d="M241,26.26h0Z"/><path class="cls-1" d="M241.71,26.25h0Z"/><path class="cls-1" d="M68.35,11.56l.15,0Z"/><path class="cls-1" d="M78.22,11.41h0Z"/><path class="cls-1" d="M129.54,18.26c0-.09.09-.08.13,0Z"/><path class="cls-1" d="M74,26.24c0,.06-.09.07-.14,0Z"/><path class="cls-1" d="M74.37,11.41h0Z"/><path class="cls-1" d="M38.48,29.51l1-1.88c.5-1,1-1.93,1.51-2.89.31-.58.63-1.16,1-1.71a1.78,1.78,0,0,1,1.72-.8,2,2,0,0,1,1.5,3.08c-1,1.39-2,2.78-3,4.19-.81,1.14-1.6,2.29-2.39,3.45a1.5,1.5,0,0,1-1,.7A1.42,1.42,0,0,1,37.24,33l-1.42-2.57c-1-1.85-2.07-3.71-3.11-5.56s-2-3.41-2.93-5.12l-2.9-5.06L24,9.65,21.09,4.59c-.08-.14-.15-.3-.25-.48l-.15.24-2.87,5L14.9,14.45l-2.87,5L9.13,24.52c-1,1.68-1.93,3.35-2.88,5-.59,1-1.18,2.07-1.73,3.13a15.61,15.61,0,0,0-1.28,3.59c-.13.54-.23,1.1-.31,1.65s-.14,1-.16,1.55c0,.67,0,1.35,0,2a9.13,9.13,0,0,0,.1,1,19.37,19.37,0,0,0,.81,3.81,4.71,4.71,0,0,1,.22.67,2.3,2.3,0,0,1,0,.8,1.34,1.34,0,0,1-1.19,1A1.3,1.3,0,0,1,1.34,48c-.2-.48-.35-1-.5-1.47a21.76,21.76,0,0,1-.75-4A20.44,20.44,0,0,1,0,39.46,21.29,21.29,0,0,1,.31,37a20.81,20.81,0,0,1,2.62-7.14q1.46-2.52,2.91-5.05l2.87-5,2.88-5,2.92-5.1,2.89-5L19.61.76A1.37,1.37,0,0,1,20.77,0,1.34,1.34,0,0,1,22,.71l.85,1.48,1.23,2.14L27,9.39l2.84,5c.09.16.17.32.27.51.07-.15.12-.26.18-.37.53-1,1.06-1.92,1.6-2.88a1.75,1.75,0,0,1,1.28-.89,1.88,1.88,0,0,1,2.26,1.63,1.9,1.9,0,0,1-.38,1.43c-1,1.4-2,2.81-3,4.21a.24.24,0,0,0,0,.2c.41.73.83,1.44,1.25,2.17l1.19,2.06a.65.65,0,0,0,.12.12.68.68,0,0,0,.1-.12c.45-.91.9-1.82,1.34-2.73.69-1.47,1.43-2.91,2.24-4.32a2.2,2.2,0,0,1,1-1,2,2,0,0,1,1.95.08,2.11,2.11,0,0,1,1.06,1.81,2,2,0,0,1-.43,1.32l-1.37,1.87c-1.1,1.47-2.2,2.94-3.29,4.42-.34.46-.64.94-.94,1.42a.3.3,0,0,0,0,.24c.36.64.73,1.27,1.08,1.91s.7,1.28,1,1.91Z"/><path class="cls-1" d="M7.93,35.87A1.43,1.43,0,0,1,9.4,37.62a14,14,0,0,0-.16,3.44,13.56,13.56,0,0,0,.31,2.06,14.25,14.25,0,0,0,3.36,6.61,13.92,13.92,0,0,0,7.93,4.47,13.35,13.35,0,0,0,1.65.21,13,13,0,0,0,1.82,0,15.1,15.1,0,0,0,4.87-1.14A14.43,14.43,0,0,0,34,50a18.17,18.17,0,0,0,1.67-2.21l2-2.82c1.11-1.6,2.23-3.2,3.32-4.82.42-.62.76-1.29,1.13-1.94.64-1.1,1.27-2.21,1.92-3.3.44-.75.9-1.48,1.36-2.22a1.76,1.76,0,0,1,1.22-.89,1.86,1.86,0,0,1,1.88.6,1.84,1.84,0,0,1,.32,2,2.49,2.49,0,0,1-.34.56c-1.06,1.37-2.15,2.71-3.2,4.09-.9,1.19-1.75,2.41-2.61,3.62-.48.68-.94,1.36-1.41,2-1.16,1.69-2.34,3.37-3.47,5.08a16.17,16.17,0,0,1-2.4,2.87,19,19,0,0,1-2.87,2.2,15.9,15.9,0,0,1-5,2.08c-.7.16-1.41.26-2.12.37a7,7,0,0,1-.85.07c-.57,0-1.15,0-1.72,0a14.72,14.72,0,0,1-2.4-.27,17.63,17.63,0,0,1-4.59-1.52A11.24,11.24,0,0,1,14.66,55,18.13,18.13,0,0,1,11,52a18.88,18.88,0,0,1-1.61-2A16.81,16.81,0,0,1,7,45c-.21-.74-.35-1.51-.49-2.27a12.73,12.73,0,0,1-.2-1.54c0-.55,0-1.1,0-1.66s0-1.08.08-1.61a6.69,6.69,0,0,1,.19-1A1.33,1.33,0,0,1,7.93,35.87Z"/><path class="cls-1" d="M15.82,37.7a.93.93,0,0,1,.24-.73,1.06,1.06,0,0,1,.72-.28,6.5,6.5,0,0,0,3.87-1.83,7.18,7.18,0,0,0,2.19-3.54c.08-.33.11-.68.16-1a1,1,0,0,1,1.42-.74,1,1,0,0,1,.51.86,6.64,6.64,0,0,0,.64,2.21,7.83,7.83,0,0,0,1.45,2,6.79,6.79,0,0,0,3.35,1.89c.28.07.57.11.86.16a.91.91,0,0,1,.84,1,2.69,2.69,0,0,1,0,.39.93.93,0,0,1-.86.81,6.47,6.47,0,0,0-2.37.7A7.25,7.25,0,0,0,25.17,44c-.13.44-.18.9-.28,1.35a.92.92,0,0,1-.9.77.89.89,0,0,1-1-.82,7.23,7.23,0,0,0-3.48-5.45A5.49,5.49,0,0,0,17.59,39c-.3-.07-.61-.07-.91-.14C16,38.73,15.82,38.46,15.82,37.7Z"/><path class="cls-1" d="M15.12,20.83a1.91,1.91,0,0,1,1.75,1,1.79,1.79,0,0,1-.08,2c-1.16,1.63-2.35,3.24-3.5,4.87-.66.93-1.29,1.88-1.93,2.82a1.66,1.66,0,0,1-.79.66A1.31,1.31,0,0,1,9,31.62a1.33,1.33,0,0,1,0-1.34l1.21-2.34c.55-1.07,1.08-2.14,1.64-3.2s1-1.92,1.57-2.88a1.83,1.83,0,0,1,1.21-1C14.79,20.86,15,20.85,15.12,20.83Z"/><text class="cls-2" transform="translate(58.12 54.04) scale(0.99 1)">公共酒精消毒系統</text></g></g></svg>