<svg xmlns="http://www.w3.org/2000/svg" viewBox="0 0 295.42 67.63"><defs><style>.cls-1,.cls-2{fill:#174452;}.cls-2{font-size:18.55px;font-family:MicrosoftJhengHeiBold, Microsoft JhengHei;font-weight:700;letter-spacing:0.55em;}</style></defs><title>pc_logo</title><g id="圖層_2" data-name="圖層 2"><g id="圖層_1-2" data-name="圖層 1"><path class="cls-1" d="M149.22,21c0,.26,0,.52,0,.78q0,6.64,0,13.28a6.5,6.5,0,0,1-.09,1.1,2.92,2.92,0,0,1-2.81,2.61l-.58,0h-.54a6,6,0,0,1-1.73-.3,5.58,5.58,0,0,1-.89-.4A2.85,2.85,0,0,1,141.15,36a9.73,9.73,0,0,1-.09-1.36q0-4.18,0-8.35c0-3.18,0-6.35,0-9.53,0-2.72,0-5.44,0-8.16a5.83,5.83,0,0,1,.23-1.74,3,3,0,0,1,1.8-1.94,3.94,3.94,0,0,1,1.32-.33l.16,0,1.29,0a.4.4,0,0,0,.42.07,4.42,4.42,0,0,1,3,1.71c.78,1,1.52,2,2.27,3l4.69,6.34,4.61,6.23c.13.17.28.33.42.5l.12.05v-.1c0-.26,0-.52,0-.78q0-6.61,0-13.22a5.38,5.38,0,0,1,.26-1.86,2.69,2.69,0,0,1,2.46-1.92l.18,0h1.43l.29.06a4.06,4.06,0,0,1,1.56.43,3.14,3.14,0,0,1,1.8,2.48,7.7,7.7,0,0,1,.1,1.3q0,12.92,0,25.84a6.77,6.77,0,0,1-.13,1.43,3,3,0,0,1-1.61,2.17,5.87,5.87,0,0,1-3.62.5,4.27,4.27,0,0,1-2.59-1.52c-.42-.5-.81-1-1.19-1.55l-3.49-4.72L153,25.88,149.38,21C149.33,20.94,149.28,20.93,149.22,21Z"/><path class="cls-1" d="M83.87,30.24h1.27c.06.07.11.06.16,0a6.9,6.9,0,0,0,1.91-.3,2.78,2.78,0,0,0,1.13-.62,1.67,1.67,0,0,0-.17-2.64A4,4,0,0,0,86.37,26c-.17,0-.34,0-.52,0l-.3,0-2.4,0H80.37A17,17,0,0,1,77,25.59l-.17-.05a11.62,11.62,0,0,1-3-.94A8.3,8.3,0,0,1,69,18.83a15.17,15.17,0,0,1-.38-5.11,12.22,12.22,0,0,1,.8-3.48,8.13,8.13,0,0,1,3-3.74,10.73,10.73,0,0,1,4.21-1.67l.18-.05.48-.07a.25.25,0,0,0,.3-.07l.62-.06a.41.41,0,0,0,.42-.06l.51,0a.15.15,0,0,0,.26,0l1.56,0c.15,0,.3,0,.45,0h10.8c.17,0,.34,0,.52,0a10.1,10.1,0,0,1,1.62.16,3.15,3.15,0,0,1,2.44,2.28,6.81,6.81,0,0,1,0,3.79,3.18,3.18,0,0,1-3.1,2.42c-.82,0-1.65,0-2.47,0l-1,0H80a.4.4,0,0,0-.43.06l-.62.06-.17.05a2.79,2.79,0,0,0-1,.37,2.7,2.7,0,0,0-.56.43,1.58,1.58,0,0,0,.2,2.4,3.4,3.4,0,0,0,1.62.63,13.57,13.57,0,0,0,1.62.12c1.91,0,3.82,0,5.73,0a.21.21,0,0,0,.3,0l.33,0,.18,0a14,14,0,0,1,4.65,1.19,10.48,10.48,0,0,1,1,.52,8.56,8.56,0,0,1,3.89,5.34,15.54,15.54,0,0,1,.43,2.76,13.93,13.93,0,0,1-.18,3.57A8.94,8.94,0,0,1,94.2,36a9.06,9.06,0,0,1-3,1.79,13.76,13.76,0,0,1-3.41.82l-.18,0-1.26.09-.18,0c-.5,0-1,0-1.49,0H79.94l-.65,0-.14,0c-.17,0-.34,0-.52,0H72.75c-.17,0-.34,0-.51,0l-.41,0a3,3,0,0,1-1.08-.21,3,3,0,0,1-1.87-1.87,4.39,4.39,0,0,1-.24-.94,7.13,7.13,0,0,1,.19-3,3.3,3.3,0,0,1,3-2.38c.43,0,.87,0,1.3,0a1.9,1.9,0,0,0,.26,0h4.37a1.84,1.84,0,0,0,.37-.08h5.73Z"/><path class="cls-1" d="M284.48,30.31a3.34,3.34,0,0,1,3.08,2.57,6.88,6.88,0,0,1,0,3.42,3.17,3.17,0,0,1-2.68,2.43l-.17.05-.89.08H279l-3.51,0-1.56,0a.89.89,0,0,0-.68-.07l-1-.08-.29-.05a13.86,13.86,0,0,1-7.27-2.92,12.63,12.63,0,0,1-3.76-5.07,18.37,18.37,0,0,1-1.24-4.84c-.08-.69-.16-1.38-.24-2.07a.15.15,0,0,0,0-.26,27,27,0,0,1,0-3.78.15.15,0,0,0,0-.26,23.77,23.77,0,0,1,1.31-6.23,12.33,12.33,0,0,1,2.7-4.42,13.14,13.14,0,0,1,1.3-1.18A13.45,13.45,0,0,1,270.1,5c.59-.13,1.2-.21,1.8-.32l.3-.06.75-.06.17,0,.76-.06c.09.1.18.1.26,0l.63,0a.7.7,0,0,0,.56,0h.62a.2.2,0,0,0,.29,0h1.27a.2.2,0,0,0,.29,0h.88a1.29,1.29,0,0,0,.82,0l4.3,0a5.21,5.21,0,0,1,1.6.25,3,3,0,0,1,2,1.78,4.2,4.2,0,0,1,.26.8,6.76,6.76,0,0,1-.21,3.59A3.06,3.06,0,0,1,284.88,13a13.78,13.78,0,0,1-2.21.1l-7.1,0-.52,0-.37,0a.43.43,0,0,0-.42.06l-.75.07-.29.07a7.72,7.72,0,0,0-1.79.56,5.8,5.8,0,0,0-2.6,2.28,8.27,8.27,0,0,0-1,2.78,13.11,13.11,0,0,0-.27,3.1,12,12,0,0,0,.68,3.69,6.29,6.29,0,0,0,4.89,4.2l.29.07.5.05a.1.1,0,0,0,.17,0l.33,0,.18,0,2.27.06.71,0h.92l4.43,0c.35,0,.69,0,1,0A.64.64,0,0,0,284.48,30.31Z"/><path class="cls-1" d="M106.93,38.48l-.86,0-.3-.06a4.19,4.19,0,0,1-3.13-6c.55-1.23,1.13-2.44,1.7-3.66l6.59-14.05q1.86-4,3.73-7.9a6.28,6.28,0,0,1,.57-1,3.94,3.94,0,0,1,2.24-1.48l.69-.18.93,0,.43.13a4,4,0,0,1,2.82,2.3c1.86,3.9,3.74,7.79,5.61,11.69.33.69.68,1.36,1,2.06a4,4,0,0,1-.75,4.48A4.06,4.06,0,0,1,123.55,26a4.22,4.22,0,0,1-2.25-2.08c-.5-1-1-2-1.45-3l-1-2.11a4.31,4.31,0,0,0-.24-.37c-.12.19-.21.33-.28.48l-1.78,3.77-3.41,7.25c-.88,1.89-1.76,3.78-2.65,5.67a7.55,7.55,0,0,1-.53,1,4.07,4.07,0,0,1-2.86,1.87Z"/><path class="cls-1" d="M215.28,30.14c.22,0,.43,0,.65,0h12.91c.43,0,.87.05,1.3.08l.17,0a3.07,3.07,0,0,1,2.49,2.37,7.23,7.23,0,0,1,0,3.55,3.09,3.09,0,0,1-1.88,2.34l-.17.07-.35.08-.17.06c-.52,0-1,.06-1.56.06H212.79l-1.48,0c-.32,0-.64,0-1-.06l-.17-.06a7.62,7.62,0,0,1-.74-.24,2.73,2.73,0,0,1-1.57-1.73,6.93,6.93,0,0,1-.27-1.34,12.38,12.38,0,0,1,0-1.37q0-12.49,0-25a7.34,7.34,0,0,1,.34-2.44,3,3,0,0,1,2.62-2.14l.19,0,.17,0h.73l.17,0a5.35,5.35,0,0,1,.58.09,3.21,3.21,0,0,1,2.41,2.56,7.4,7.4,0,0,1,.16,1.68q0,7,0,14,0,3.26,0,6.52c0,.27-.06.58.25.76Z"/><path class="cls-1" d="M248.31,4.6l.5.12a3.18,3.18,0,0,1,2.33,2.7,8.1,8.1,0,0,1,.12,1.43q0,9.26,0,18.53c0,2.37,0,4.74,0,7.11a7.4,7.4,0,0,1-.22,1.87,3.14,3.14,0,0,1-1.46,1.93,4.5,4.5,0,0,1-3.7.48,7.11,7.11,0,0,1-.68-.23,3.06,3.06,0,0,1-2-2.58,9.2,9.2,0,0,1-.1-1.36q0-7,0-14,0-5.87,0-11.74a6.75,6.75,0,0,1,.25-1.93,3.19,3.19,0,0,1,3.06-2.4c.54,0,1.08,0,1.63,0Z"/><path class="cls-1" d="M181.46,38.82a4,4,0,0,1-1.31-.35,3,3,0,0,1-1.66-1.74,4.15,4.15,0,0,1-.27-1.47q0-4.43,0-8.86,0-3.39,0-6.78,0-5.54,0-11.08a5.38,5.38,0,0,1,.32-1.92,3,3,0,0,1,2.41-2.05l.18-.05a6.89,6.89,0,0,1,2.46.1,5.6,5.6,0,0,1,1,.37,3,3,0,0,1,1.56,2.06,8.55,8.55,0,0,1,.22,2.26c0,2.78,0,5.56,0,8.34q0,6.45,0,12.9c0,1.28,0,2.56,0,3.84a9.25,9.25,0,0,1-.18,1.74,3.38,3.38,0,0,1-2.35,2.56l-.16.07-.36.07-.16,0a4,4,0,0,1-1.43,0Z"/><path class="cls-1" d="M194.13,18.11c.32,0,.64,0,1,0h3.81c.19,0,.39,0,.58,0a.43.43,0,0,0,.4.07A3.2,3.2,0,0,1,202.55,20a4.83,4.83,0,0,1,.46,3.4,4.51,4.51,0,0,1-1.35,2.25,2.89,2.89,0,0,1-1.76.75.44.44,0,0,0-.41.07c-.21,0-.43,0-.64,0h-4.2c-.26,0-.51,0-.77-.07l-.15,0a3.43,3.43,0,0,1-3-2.43,5.16,5.16,0,0,1,.21-3.87,3.25,3.25,0,0,1,2.79-1.95A.44.44,0,0,0,194.13,18.11Z"/><path class="cls-1" d="M130.17,39.37a4.85,4.85,0,0,1-4.44-4.65,4.91,4.91,0,0,1,1.94-4.2,4.42,4.42,0,0,1,2.26-.94,4.91,4.91,0,0,1,5.61,4.7,4.66,4.66,0,0,1-.95,3.17,4.85,4.85,0,0,1-3.23,1.88l-.39,0h-.8Z"/><path class="cls-1" d="M235.79,4.46a4.92,4.92,0,0,1,.12,9.7l-.28.06a3.67,3.67,0,0,1-1.29,0l-.16,0a4.8,4.8,0,0,1-4.06-4.58,5.08,5.08,0,0,1,.48-2.47,4.71,4.71,0,0,1,3.58-2.63l.26,0,.17,0,.22,0c.06.07.11.06.17,0h.36A.42.42,0,0,0,235.79,4.46Z"/><path class="cls-1" d="M78.14,30.25a1.84,1.84,0,0,1-.37.08H73.4a1.9,1.9,0,0,1-.26,0,1.13,1.13,0,0,1,.3-.09h4.45A1.55,1.55,0,0,1,78.14,30.25Z"/><path class="cls-1" d="M284.48,30.31a.64.64,0,0,1-.55-.07A.63.63,0,0,1,284.48,30.31Z"/><path class="cls-1" d="M259.38,23.41a.15.15,0,0,1,0,.26C259.29,23.59,259.28,23.5,259.38,23.41Z"/><path class="cls-1" d="M259.39,19.37a.15.15,0,0,1,0,.26A.15.15,0,0,1,259.39,19.37Z"/><path class="cls-1" d="M79.53,13.2a.4.4,0,0,1,.43-.06A.42.42,0,0,1,79.53,13.2Z"/><path class="cls-1" d="M274.26,13.19a.43.43,0,0,1,.42-.06l0,.1Z"/><path class="cls-1" d="M274.65,13.22l0-.1.37,0C274.93,13.27,274.79,13.24,274.65,13.22Z"/><path class="cls-1" d="M194.13,18.11a.44.44,0,0,1-.4.07A.41.41,0,0,1,194.13,18.11Z"/><path class="cls-1" d="M199.89,18.18a.43.43,0,0,1-.4-.07A.42.42,0,0,1,199.89,18.18Z"/><path class="cls-1" d="M199.49,26.49a.44.44,0,0,1,.41-.07A.4.4,0,0,1,199.49,26.49Z"/><path class="cls-1" d="M273.36,30l-.29-.07Z"/><path class="cls-1" d="M85.55,25.94l.3,0Z"/><path class="cls-1" d="M235.63,14.22l.28-.06A.23.23,0,0,1,235.63,14.22Z"/><path class="cls-1" d="M86.62,17.31a.21.21,0,0,1-.3,0Z"/><path class="cls-1" d="M273.21,13.33l.29-.07Z"/><path class="cls-1" d="M161.34,22.36v.1l-.12-.05Z"/><path class="cls-1" d="M76.78,25.54l.17.05Z"/><path class="cls-1" d="M193.72,26.43l.15,0Z"/><path class="cls-1" d="M87.13,17.37l-.18,0Z"/><path class="cls-1" d="M215.28,30.14l-.15-.06Z"/><path class="cls-1" d="M274,30.1a.1.1,0,0,1-.17,0Z"/><path class="cls-1" d="M274.54,30.16l-.18,0Z"/><path class="cls-1" d="M234.18,14.17l.16,0Z"/><path class="cls-1" d="M83.87,30.24h0Z"/><path class="cls-1" d="M230.3,30.31l-.17,0Z"/><path class="cls-1" d="M277.66,30.25h0Z"/><path class="cls-1" d="M278.45,30.24h0Z"/><path class="cls-1" d="M78.74,13.32l.17-.05Z"/><path class="cls-1" d="M90.11,13.15h0Z"/><path class="cls-1" d="M149.22,21c.05-.1.1-.09.16,0Z"/><path class="cls-1" d="M85.3,30.23c-.05.07-.1.08-.16,0Z"/><path class="cls-1" d="M85.67,13.14h0Z"/><path class="cls-1" d="M44.33,34c.38-.74.74-1.45,1.11-2.17.58-1.11,1.15-2.22,1.74-3.33.36-.67.72-1.34,1.13-2a2.06,2.06,0,0,1,2-.92A2.28,2.28,0,0,1,52,29.16c-1.17,1.6-2.35,3.21-3.5,4.83-.93,1.31-1.84,2.64-2.75,4a1.73,1.73,0,0,1-1.12.8A1.63,1.63,0,0,1,42.9,38c-.55-1-1.09-2-1.64-3-1.19-2.14-2.38-4.27-3.59-6.4-1.12-2-2.25-3.93-3.38-5.9L31,16.94l-3.34-5.83L24.3,5.28c-.09-.17-.18-.34-.28-.55L23.84,5l-3.3,5.74-3.37,5.9-3.3,5.76-3.35,5.84C9.4,30.17,8.29,32.1,7.2,34c-.68,1.2-1.36,2.39-2,3.61a18,18,0,0,0-1.47,4.13c-.15.63-.26,1.26-.36,1.9s-.16,1.19-.19,1.79c0,.78,0,1.55,0,2.33a10.51,10.51,0,0,0,.11,1.11,22.31,22.31,0,0,0,.93,4.38,5.42,5.42,0,0,1,.25.78,2.65,2.65,0,0,1,0,.92A1.54,1.54,0,0,1,3.1,56.17a1.5,1.5,0,0,1-1.56-.91c-.23-.55-.4-1.12-.57-1.69A25.07,25.07,0,0,1,.1,49,23.55,23.55,0,0,1,0,45.45a24.53,24.53,0,0,1,.32-2.86,24,24,0,0,1,3-8.22q1.68-2.91,3.35-5.82L10,22.79,13.35,17l3.37-5.88,3.33-5.81L22.59.88A1.58,1.58,0,0,1,23.92,0a1.54,1.54,0,0,1,1.47.82l1,1.7L27.79,5l3.34,5.83,3.27,5.71c.1.18.19.36.31.59.08-.17.14-.3.21-.43.61-1.11,1.22-2.22,1.85-3.32a2,2,0,0,1,1.47-1,2.16,2.16,0,0,1,2.6,1.87,2.19,2.19,0,0,1-.44,1.65c-1.16,1.61-2.31,3.23-3.45,4.85a.27.27,0,0,0,0,.23c.47.84,1,1.66,1.44,2.5l1.37,2.38a.75.75,0,0,0,.14.14.78.78,0,0,0,.11-.14c.52-1,1-2.09,1.54-3.15.8-1.69,1.65-3.35,2.59-5a2.54,2.54,0,0,1,1.12-1.12,2.31,2.31,0,0,1,2.24.09,2.43,2.43,0,0,1,1.22,2.09,2.35,2.35,0,0,1-.5,1.52c-.53.72-1,1.44-1.58,2.15-1.26,1.7-2.53,3.39-3.79,5.09-.39.53-.74,1.08-1.09,1.64a.34.34,0,0,0,0,.28c.41.74.84,1.46,1.25,2.2s.8,1.47,1.2,2.2Z"/><path class="cls-1" d="M9.14,41.32a1.65,1.65,0,0,1,1.69,2,16.07,16.07,0,0,0-.19,4A15.62,15.62,0,0,0,11,49.68a16.41,16.41,0,0,0,3.87,7.61A16,16,0,0,0,24,62.44a15.37,15.37,0,0,0,1.9.24,14.92,14.92,0,0,0,2.1,0,17.4,17.4,0,0,0,5.61-1.31,16.62,16.62,0,0,0,5.57-3.85A20.93,20.93,0,0,0,41.1,55l2.26-3.25c1.28-1.85,2.57-3.68,3.82-5.55.48-.71.87-1.49,1.3-2.23.74-1.27,1.47-2.54,2.21-3.8.51-.86,1-1.71,1.57-2.55a2,2,0,0,1,1.4-1,2.15,2.15,0,0,1,2.17.69,2.12,2.12,0,0,1,.36,2.28,2.87,2.87,0,0,1-.39.65c-1.22,1.57-2.48,3.12-3.68,4.71-1,1.37-2,2.77-3,4.17-.55.78-1.09,1.57-1.63,2.36-1.34,1.95-2.7,3.88-4,5.85a18.63,18.63,0,0,1-2.76,3.31,21.94,21.94,0,0,1-3.3,2.53,18.31,18.31,0,0,1-5.81,2.39c-.8.19-1.63.3-2.44.42a8.09,8.09,0,0,1-1,.08c-.66,0-1.32.05-2,0a17,17,0,0,1-2.76-.31A20.31,20.31,0,0,1,18.17,64a13,13,0,0,1-1.28-.7,20.88,20.88,0,0,1-4.26-3.46,21.76,21.76,0,0,1-1.85-2.28A19.36,19.36,0,0,1,8,51.83c-.24-.86-.4-1.74-.57-2.62a14.66,14.66,0,0,1-.23-1.77c0-.63,0-1.27,0-1.91s0-1.24.09-1.86a7.7,7.7,0,0,1,.21-1.18A1.53,1.53,0,0,1,9.14,41.32Z"/><path class="cls-1" d="M18.23,43.43a1.07,1.07,0,0,1,.27-.84,1.22,1.22,0,0,1,.83-.33,7.49,7.49,0,0,0,4.46-2.11,8.27,8.27,0,0,0,2.52-4.08c.09-.39.13-.79.18-1.18A1.1,1.1,0,0,1,28.13,34a1.14,1.14,0,0,1,.58,1,7.65,7.65,0,0,0,.74,2.54,9,9,0,0,0,1.67,2.33A7.82,7.82,0,0,0,35,42.08c.33.08.66.13,1,.18a1,1,0,0,1,1,1.15,3.09,3.09,0,0,1,0,.45,1.07,1.07,0,0,1-1,.94,7.46,7.46,0,0,0-2.73.8A8.36,8.36,0,0,0,29,50.69c-.15.51-.21,1-.32,1.56a1.06,1.06,0,0,1-1,.89,1,1,0,0,1-1.13-.95,8.33,8.33,0,0,0-4-6.28,6.33,6.33,0,0,0-2.23-1c-.34-.08-.7-.08-1-.16C18.46,44.62,18.23,44.3,18.23,43.43Z"/><path class="cls-1" d="M17.41,24a2.2,2.2,0,0,1,2,1.19,2.07,2.07,0,0,1-.09,2.3c-1.34,1.88-2.7,3.73-4,5.61-.76,1.07-1.48,2.16-2.22,3.25a1.91,1.91,0,0,1-.91.76,1.5,1.5,0,0,1-1.81-.68,1.54,1.54,0,0,1,0-1.54l1.39-2.7c.63-1.23,1.25-2.47,1.89-3.69s1.2-2.21,1.81-3.31a2.1,2.1,0,0,1,1.4-1.1C17,24,17.26,24,17.41,24Z"/><text class="cls-2" transform="translate(66.96 62.25) scale(0.99 1)">公共酒精消毒系統</text></g></g></svg>